<svg width="16" height="17" viewBox="0 0 16 17" fill="none" xmlns="http://www.w3.org/2000/svg">
<path d="M13.3333 8.83325V5.03325C13.3333 3.91315 13.3333 3.35309 13.1153 2.92527C12.9236 2.54895 12.6176 2.24299 12.2413 2.05124C11.8135 1.83325 11.2534 1.83325 10.1333 1.83325H5.86666C4.74655 1.83325 4.1865 1.83325 3.75868 2.05124C3.38235 2.24299 3.07639 2.54895 2.88464 2.92527C2.66666 3.35309 2.66666 3.91315 2.66666 5.03325V11.9666C2.66666 13.0867 2.66666 13.6467 2.88464 14.0746C3.07639 14.4509 3.38235 14.7569 3.75868 14.9486C4.1865 15.1666 4.74652 15.1666 5.86656 15.1666H8.33332" stroke="#475569" stroke-width="1.33333" stroke-linecap="round" stroke-linejoin="round"/>
<path d="M12 11.1667L10 13.1667M10 13.1667L12 15.1667M10 13.1667L14 13.1667" stroke="#475569" stroke-width="1.33333" stroke-linecap="round" stroke-linejoin="round"/>
<line x1="6.00001" y1="5.83333" x2="10" y2="5.83333" stroke="#475569" stroke-width="1.33333" stroke-linecap="round" stroke-linejoin="round"/>
<line x1="6.00001" y1="9.16659" x2="8.00001" y2="9.16658" stroke="#475569" stroke-width="1.33333" stroke-linecap="round" stroke-linejoin="round"/>
</svg>
