<svg width="16" height="17" viewBox="0 0 16 17" fill="none" xmlns="http://www.w3.org/2000/svg">
<path d="M12.3805 13.8334C13.2219 13.8334 13.9045 13.1514 13.9045 12.3094V9.26208L14.6665 8.50008L13.9045 7.73808V4.69075C13.9045 3.84875 13.2225 3.16675 12.3805 3.16675M3.61934 3.16675C2.77734 3.16675 2.09534 3.84875 2.09534 4.69075V7.73808L1.33334 8.50008L2.09534 9.26208V12.3094C2.09534 13.1514 2.77734 13.8334 3.61934 13.8334M5.00001 8.50008L6.62289 10.123C6.75489 10.255 6.8209 10.321 6.897 10.3457C6.96395 10.3674 7.03607 10.3674 7.10302 10.3457C7.17913 10.321 7.24513 10.255 7.37713 10.123L11 6.50008" stroke="#735EA1" stroke-width="1.5" stroke-linecap="round" stroke-linejoin="round"/>
</svg>
