<svg width="20" height="20" viewBox="0 0 20 20" fill="none" xmlns="http://www.w3.org/2000/svg">
<g clip-path="url(#clip0_15150_801)">
<path fill-rule="evenodd" clip-rule="evenodd" d="M5.06574 15.6329C5.43583 15.7663 5.84416 15.9003 6.29038 16.0239C5.50428 16.7778 4.28571 17.8333 4.28571 17.8333C0.501374 17.7226 0 14.8602 0 14.8602C0 9.76772 2.46573 3.66071 2.46573 3.66071C4.93147 1.95267 7.27733 2.00013 7.27733 2.00013L7.49457 3.34934C7.49457 3.34934 9.05392 3.19576 10 3.1875C10.9461 3.17924 12.3398 3.30706 12.3398 3.30706L12.7225 2.00024C12.7225 2.00024 15.0684 1.95267 17.5341 3.66082C17.5341 3.66082 20 9.76772 20 14.8602C20 14.8602 19.4985 17.7226 15.7143 17.8333C15.7143 17.8333 14.5764 16.7968 13.8242 16.0499C14.2191 15.9379 14.6182 15.8043 15.0231 15.6476C15.6693 15.425 16.3805 15.1032 17.1223 14.652L16.3366 13.5501C15.6797 13.9496 15.0604 14.2275 14.5117 14.4155L14.5027 14.4187L14.4956 14.4213L14.4836 14.4258C13.6742 14.7399 12.9048 14.9463 12.1575 15.0638L12.1458 15.0657C10.6056 15.3324 9.1902 15.2594 7.97567 15.0502C7.05294 14.8855 6.25714 14.646 5.58571 14.404C4.9139 14.1612 4.33909 13.9044 3.78287 13.5448L2.96369 14.6257C3.64365 15.0653 4.33059 15.3672 5.06574 15.6329ZM8.33329 9.50003C8.33329 10.4205 7.5871 11.1667 6.66662 11.1667C5.74615 11.1667 4.99996 10.4205 4.99996 9.50003C4.99996 8.57955 5.74615 7.83336 6.66662 7.83336C7.5871 7.83336 8.33329 8.57955 8.33329 9.50003ZM13.3333 11.1667C14.2538 11.1667 15 10.4205 15 9.50003C15 8.57955 14.2538 7.83336 13.3333 7.83336C12.4129 7.83336 11.6667 8.57955 11.6667 9.50003C11.6667 10.4205 12.4129 11.1667 13.3333 11.1667Z" fill="#0F172A"/>
</g>
<defs>
<clipPath id="clip0_15150_801">
<rect width="20" height="20" fill="white"/>
</clipPath>
</defs>
</svg>
