<svg width="20" height="20" viewBox="0 0 20 20" fill="none" xmlns="http://www.w3.org/2000/svg">
<path d="M19.9909 1.77627C20.0298 1.54315 19.9423 1.30688 19.761 1.15526C19.5797 1.00365 19.3317 0.959358 19.1091 1.03885L0.442448 7.70551C0.190945 7.79533 0.0173155 8.02658 0.00121827 8.29315C-0.0148789 8.55973 0.129662 8.81019 0.36853 8.92962L5.70186 11.5963C5.91584 11.7033 6.17074 11.6874 6.3698 11.5547L10.797 8.60324L8.14609 11.9169C8.02936 12.0628 7.97922 12.251 8.00789 12.4356C8.03656 12.6202 8.14139 12.7844 8.29686 12.888L12.9635 18.2214C13.1518 18.3468 13.3908 18.3683 13.5983 18.2784C13.8059 18.1885 13.9537 17.9994 13.9909 17.7763L19.9909 1.77627Z" fill="#0F172A"/>
</svg>
