<svg width="20" height="20" viewBox="0 0 20 20" fill="none" xmlns="http://www.w3.org/2000/svg">
<g id="icon_medium" clip-path="url(#clip0_15150_810)">
<g id="Group">
<path id="Vector" d="M11.2923 9.83802C11.2923 12.9748 8.75784 15.5093 5.64617 15.5093C2.5345 15.5093 0 12.9999 0 9.83802C0 6.67616 2.5345 4.16675 5.64617 4.16675C8.75784 4.16675 11.2923 6.70125 11.2923 9.83802Z" fill="#0F172A"/>
<path id="Vector_2" d="M17.4906 9.83796C17.4906 12.7991 16.2359 15.183 14.68 15.183C13.1242 15.183 11.8695 12.7991 11.8695 9.83796C11.8695 6.87686 13.1242 4.49292 14.68 4.49292C16.2108 4.49292 17.4906 6.90195 17.4906 9.83796Z" fill="#0F172A"/>
<path id="Vector_3" d="M20 9.83814C20 12.473 19.5483 14.6311 18.9963 14.6311C18.4442 14.6311 17.9925 12.473 17.9925 9.83814C17.9925 7.20326 18.4442 5.04517 18.9963 5.04517C19.5734 5.04517 20 7.20326 20 9.83814Z" fill="#0F172A"/>
</g>
</g>
<defs>
<clipPath id="clip0_15150_810">
<rect width="20" height="20" fill="white"/>
</clipPath>
</defs>
</svg>
